<?xml version="1.0" encoding="UTF-8" standalone="no"?>
<!DOCTYPE svg PUBLIC "-//W3C//DTD SVG 1.1//EN" "http://www.w3.org/Graphics/SVG/1.1/DTD/svg11.dtd">
<svg width="100%" height="100%" viewBox="0 0 473 471" version="1.1" xmlns="http://www.w3.org/2000/svg" xmlns:xlink="http://www.w3.org/1999/xlink" xml:space="preserve" xmlns:serif="http://www.serif.com/" style="fill-rule:evenodd;clip-rule:evenodd;stroke-linejoin:round;stroke-miterlimit:2;">
    <g transform="matrix(1,0,0,1,-114.048,-44.8)">
        <g>
            <g transform="matrix(-1,0,0,1,700.368,0)">
                <path d="M586.32,112C586.32,94.176 579.238,77.086 566.636,64.484C554.034,51.879 536.941,44.8 519.12,44.8L367.92,44.8C350.096,44.8 333.002,51.878 320.4,64.484C307.798,77.086 300.716,94.175 300.716,112L300.716,174.719C300.716,182.723 304.986,190.117 311.919,194.117C318.849,198.121 327.388,198.121 334.317,194.117C341.247,190.117 345.516,182.722 345.516,174.719L345.516,112C345.516,106.059 347.875,100.363 352.079,96.16C356.278,91.961 361.977,89.601 367.919,89.601L519.119,89.601C525.06,89.601 530.756,91.961 534.959,96.16C539.158,100.363 541.517,106.058 541.517,112L541.517,448C541.517,453.941 539.158,459.637 534.959,463.84C530.755,468.039 525.06,470.399 519.119,470.399L367.919,470.399C361.977,470.399 356.278,468.039 352.079,463.84C347.875,459.637 345.516,453.942 345.516,448L345.516,386.398C345.516,378.398 341.247,371.003 334.317,367C327.387,363 318.848,363 311.919,367C304.985,371.004 300.716,378.398 300.716,386.398L300.716,448C300.716,465.824 307.798,482.914 320.4,495.516C333.002,508.121 350.095,515.2 367.92,515.2L519.12,515.2C536.94,515.2 554.034,508.122 566.636,495.516C579.238,482.914 586.32,465.825 586.32,448L586.32,112Z" style="fill:rgb(64,84,123);fill-rule:nonzero;"/>
            </g>
            <g transform="matrix(-1,0,0,1,700.368,0)">
                <path d="M270.93,145.6C266.727,141.393 261.024,139.03 255.078,139.03C249.137,139.03 243.433,141.393 239.23,145.6L121.63,263.2L121.634,263.196C116.81,267.45 114.048,273.567 114.048,279.997C114.048,286.427 116.81,292.544 121.634,296.798L239.234,414.398L239.23,414.394C244.894,420.058 253.144,422.269 260.878,420.195C268.612,418.125 274.655,412.082 276.73,404.347C278.8,396.613 276.589,388.363 270.929,382.699L190.343,302.394L440.723,302.394C448.727,302.394 456.121,298.124 460.121,291.195C464.125,284.265 464.125,275.726 460.121,268.797C456.121,261.867 448.726,257.598 440.723,257.598L190.343,257.598L270.929,177.067C275.066,172.876 277.386,167.223 277.386,161.333C277.386,155.442 275.066,149.79 270.929,145.599L270.93,145.6Z" style="fill:rgb(64,84,123);fill-rule:nonzero;"/>
            </g>
        </g>
    </g>
</svg>
