<?xml version="1.0" encoding="UTF-8" standalone="no"?>
<!DOCTYPE svg PUBLIC "-//W3C//DTD SVG 1.1//EN" "http://www.w3.org/Graphics/SVG/1.1/DTD/svg11.dtd">
<svg width="100%" height="100%" viewBox="0 0 493 460" version="1.1" xmlns="http://www.w3.org/2000/svg" xmlns:xlink="http://www.w3.org/1999/xlink" xml:space="preserve" xmlns:serif="http://www.serif.com/" style="fill-rule:evenodd;clip-rule:evenodd;stroke-linejoin:round;stroke-miterlimit:2;">
    <g transform="matrix(1,0,0,1,-103.604,-50.4021)">
        <path d="M180.95,50.414C175.181,50.957 170.774,55.816 170.802,61.613L170.802,106.41L159.603,106.41L159.603,106.414C159.251,106.394 158.9,106.394 158.552,106.414C152.779,106.957 148.376,111.816 148.4,117.613L148.4,162.41L137.201,162.41C136.854,162.394 136.502,162.394 136.15,162.41C130.381,162.953 125.978,167.812 126.002,173.609L126.002,218.406L114.803,218.406L114.803,218.41C114.452,218.394 114.104,218.394 113.753,218.41C107.979,218.953 103.577,223.812 103.605,229.609L103.605,498.399C103.605,504.582 108.616,509.598 114.804,509.598L585.204,509.598C591.391,509.598 596.403,504.582 596.403,498.399L596.403,229.609C596.403,223.425 591.391,218.41 585.204,218.41L574.005,218.41L574.005,173.609C574.005,167.425 568.989,162.41 562.806,162.41L551.607,162.41L551.607,117.613C551.603,111.425 546.591,106.414 540.404,106.414L529.205,106.414L529.205,61.613C529.205,55.429 524.189,50.414 518.006,50.414L182.006,50.414C181.654,50.398 181.306,50.398 180.955,50.414L180.95,50.414ZM193.2,72.812L506.8,72.812L506.8,106.41L193.2,106.41L193.2,72.812ZM170.802,128.812L529.202,128.812L529.202,162.41L170.802,162.41L170.802,128.812ZM148.404,184.812L551.604,184.812L551.604,218.41L148.404,218.41L148.404,184.812ZM126.006,240.812L574.006,240.812L574.006,487.202L126.006,487.202L126.006,240.812Z" style="fill:rgb(64,84,123);fill-rule:nonzero;"/>
    </g>
</svg>
