<?xml version="1.0" encoding="UTF-8" standalone="no"?>
<!DOCTYPE svg PUBLIC "-//W3C//DTD SVG 1.1//EN" "http://www.w3.org/Graphics/SVG/1.1/DTD/svg11.dtd">
<svg width="100%" height="100%" viewBox="0 0 24 24" version="1.1" xmlns="http://www.w3.org/2000/svg" xmlns:xlink="http://www.w3.org/1999/xlink" xml:space="preserve" xmlns:serif="http://www.serif.com/" style="fill-rule:evenodd;clip-rule:evenodd;stroke-linejoin:round;stroke-miterlimit:2;">
    <rect id="Artboard1" x="0" y="0" width="24" height="24" style="fill:none;"/>
    <g id="Artboard11" serif:id="Artboard1">
        <path d="M9.25,9L4.75,9C3.79,9 3,8.21 3,7.25L3,4.75C3,3.79 3.79,3 4.75,3L9.25,3C10.21,3 11,3.79 11,4.75L11,7.25C11,8.21 10.21,9 9.25,9ZM4.75,4.5C4.613,4.5 4.5,4.613 4.5,4.75L4.5,7.25C4.5,7.387 4.613,7.5 4.75,7.5L9.25,7.5C9.387,7.5 9.5,7.387 9.5,7.25L9.5,4.75C9.5,4.613 9.387,4.5 9.25,4.5L4.75,4.5Z" style="fill:rgb(64,84,123);fill-rule:nonzero;"/>
        <path d="M19.25,21L14.75,21C13.79,21 13,20.21 13,19.25L13,16.75C13,15.79 13.79,15 14.75,15L19.25,15C20.21,15 21,15.79 21,16.75L21,19.25C21,20.21 20.21,21 19.25,21ZM14.75,16.5C14.613,16.5 14.5,16.613 14.5,16.75L14.5,19.25C14.5,19.387 14.613,19.5 14.75,19.5L19.25,19.5C19.387,19.5 19.5,19.387 19.5,19.25L19.5,16.75C19.5,16.613 19.387,16.5 19.25,16.5L14.75,16.5Z" style="fill:rgb(64,84,123);fill-rule:nonzero;"/>
        <path d="M19.25,13L14.75,13C13.79,13 13,12.21 13,11.25L13,4.75C13,3.79 13.79,3 14.75,3L19.25,3C20.21,3 21,3.79 21,4.75L21,11.25C21,12.21 20.21,13 19.25,13ZM14.75,4.5C14.613,4.5 14.5,4.613 14.5,4.75L14.5,11.25C14.5,11.387 14.613,11.5 14.75,11.5L19.25,11.5C19.387,11.5 19.5,11.387 19.5,11.25L19.5,4.75C19.5,4.613 19.387,4.5 19.25,4.5L14.75,4.5Z" style="fill:rgb(64,84,123);fill-rule:nonzero;"/>
        <path d="M9.25,21L4.75,21C3.79,21 3,20.21 3,19.25L3,12.75C3,11.79 3.79,11 4.75,11L9.25,11C10.21,11 11,11.79 11,12.75L11,19.25C11,20.21 10.21,21 9.25,21ZM4.75,12.5C4.613,12.5 4.5,12.613 4.5,12.75L4.5,19.25C4.5,19.387 4.613,19.5 4.75,19.5L9.25,19.5C9.387,19.5 9.5,19.387 9.5,19.25L9.5,12.75C9.5,12.613 9.387,12.5 9.25,12.5L4.75,12.5Z" style="fill:rgb(64,84,123);fill-rule:nonzero;"/>
        <path d="M21.25,24L2.75,24C1.241,24 0,22.759 0,21.25L0,2.75C-0,1.241 1.241,0 2.75,0L21.25,0C22.759,-0 24,1.241 24,2.75L24,21.25C24,22.759 22.759,24 21.25,24ZM2.75,1.5C2.064,1.5 1.5,2.064 1.5,2.75L1.5,21.25C1.5,21.936 2.064,22.5 2.75,22.5L21.25,22.5C21.936,22.5 22.5,21.936 22.5,21.25L22.5,2.75C22.5,2.064 21.936,1.5 21.25,1.5L2.75,1.5Z" style="fill:rgb(64,84,123);fill-rule:nonzero;"/>
    </g>
</svg>
