<?xml version="1.0" encoding="UTF-8" standalone="no"?>
<!DOCTYPE svg PUBLIC "-//W3C//DTD SVG 1.1//EN" "http://www.w3.org/Graphics/SVG/1.1/DTD/svg11.dtd">
<svg width="100%" height="100%" viewBox="0 0 26 26" version="1.1" xmlns="http://www.w3.org/2000/svg" xmlns:xlink="http://www.w3.org/1999/xlink" xml:space="preserve" xmlns:serif="http://www.serif.com/" style="fill-rule:evenodd;clip-rule:evenodd;stroke-linejoin:round;stroke-miterlimit:2;">
    <g transform="matrix(1,0,0,1,-3,-3)">
        <g>
            <path d="M26,3L10,3C8.346,3 7,4.346 7,6L7,7L6,7C4.346,7 3,8.346 3,10L3,26C3,27.654 4.346,29 6,29L22,29C23.654,29 25,27.654 25,26L25,25L26,25C27.654,25 29,23.654 29,22L29,6C29,4.346 27.654,3 26,3ZM23,26C23,26.551 22.551,27 22,27L6,27C5.449,27 5,26.551 5,26L5,10C5,9.449 5.449,9 6,9L22,9C22.551,9 23,9.449 23,10L23,26ZM27,22C27,22.551 26.551,23 26,23L25,23L25,10C25,8.346 23.654,7 22,7L9,7L9,6C9,5.449 9.449,5 10,5L26,5C26.551,5 27,5.449 27,6L27,22Z" style="fill:rgb(64,84,123);fill-rule:nonzero;"/>
            <path d="M7.5,13L20.5,13C20.776,13 21,12.776 21,12.5L21,11.5C21,11.224 20.776,11 20.5,11L7.5,11C7.224,11 7,11.224 7,11.5L7,12.5C7,12.776 7.224,13 7.5,13Z" style="fill:rgb(64,84,123);fill-rule:nonzero;"/>
            <path d="M7.5,17L20.5,17C20.776,17 21,16.776 21,16.5L21,15.5C21,15.224 20.776,15 20.5,15L7.5,15C7.224,15 7,15.224 7,15.5L7,16.5C7,16.776 7.224,17 7.5,17Z" style="fill:rgb(64,84,123);fill-rule:nonzero;"/>
            <path d="M7.5,21L20.5,21C20.776,21 21,20.776 21,20.5L21,19.5C21,19.224 20.776,19 20.5,19L7.5,19C7.224,19 7,19.224 7,19.5L7,20.5C7,20.776 7.224,21 7.5,21Z" style="fill:rgb(64,84,123);fill-rule:nonzero;"/>
            <path d="M7.5,25L20.5,25C20.776,25 21,24.776 21,24.5L21,23.5C21,23.224 20.776,23 20.5,23L7.5,23C7.224,23 7,23.224 7,23.5L7,24.5C7,24.776 7.224,25 7.5,25Z" style="fill:rgb(64,84,123);fill-rule:nonzero;"/>
        </g>
    </g>
</svg>
