<?xml version="1.0" encoding="UTF-8" standalone="no"?>
<!DOCTYPE svg PUBLIC "-//W3C//DTD SVG 1.1//EN" "http://www.w3.org/Graphics/SVG/1.1/DTD/svg11.dtd">
<svg width="100%" height="100%" viewBox="0 0 20 17" version="1.1" xmlns="http://www.w3.org/2000/svg" xmlns:xlink="http://www.w3.org/1999/xlink" xml:space="preserve" xmlns:serif="http://www.serif.com/" style="fill-rule:evenodd;clip-rule:evenodd;stroke-linejoin:round;stroke-miterlimit:2;">
    <g transform="matrix(1,0,0,1,-266,-3)">
        <path d="M284.992,16.699L280.707,12.414C280.317,12.024 279.683,12.024 279.293,12.414L277.503,14.204L282.3,19L282.5,19C283.814,19 284.891,17.987 284.992,16.699ZM285,15.293L285,6.5C285,5.119 283.881,4 282.5,4L269.5,4C268.119,4 267,5.119 267,6.5L267,14.293L270.882,10.411C271.663,9.63 272.929,9.63 273.71,10.411L276.796,13.497L278.586,11.707C279.367,10.926 280.633,10.926 281.414,11.707L285,15.293ZM280.885,19L273.003,11.118C272.613,10.727 271.98,10.727 271.589,11.118L267,15.707L267,16.5C267,17.881 268.119,19 269.5,19L280.885,19ZM269.5,3L282.5,3C284.433,3 286,4.567 286,6.5L286,16.5C286,18.433 284.433,20 282.5,20L269.5,20C267.567,20 266,18.433 266,16.5L266,6.5C266,4.567 267.567,3 269.5,3ZM281,9.5C279.895,9.5 279,8.605 279,7.5C279,6.395 279.895,5.5 281,5.5C282.105,5.5 283,6.395 283,7.5C283,8.605 282.105,9.5 281,9.5ZM281,8.5C281.552,8.5 282,8.052 282,7.5C282,6.948 281.552,6.5 281,6.5C280.448,6.5 280,6.948 280,7.5C280,8.052 280.448,8.5 281,8.5Z" style="fill:rgb(64,84,123);fill-rule:nonzero;"/>
    </g>
</svg>
